<?xml version="1.0" standalone="no"?>
<svg xmlns="http://www.w3.org/2000/svg" xmlns:xlink="http://www.w3.org/1999/xlink" style="isolation:isolate" viewBox="0 0 140 70" width="140" height="70">
	<g>
		<path d="M 98.88 49.296 C 98.351 49.83 98.351 50.696 98.88 51.232 C 99.412 51.77 100.271 51.77 100.803 51.232 L 116.314 35.569 C 116.844 35.032 116.844 34.163 116.314 33.63 L 100.803 17.962 C 100.271 17.427 99.412 17.427 98.88 17.962 C 98.351 18.5 98.351 19.364 98.88 19.901 L 113.026 34.6 L 98.88 49.296 Z" fill="#3e3e3e" />
		<path d="M 70 34.998 C 70 15.7 85.702 0 105.002 0 C 124.3 0 140 15.7 140 34.998 C 140 54.3 124.3 70 105.002 70 C 85.702 70 70 54.3 70 34.998 Z  M 137.582 34.998 C 137.582 17.035 122.966 2.419 105.002 2.419 C 87.035 2.419 72.417 17.035 72.417 34.998 C 72.417 52.965 87.035 67.583 105.002 67.583 C 122.965 67.583 137.582 52.965 137.582 34.998 Z" fill="#3e3e3e" />
	</g>
	<g>
		<path d="M 41.119 20.706 C 41.649 20.17 41.649 19.306 41.119 18.768 C 40.587 18.232 39.726 18.232 39.197 18.768 L 23.685 34.434 C 23.155 34.969 23.155 35.838 23.685 36.372 L 39.197 52.042 C 39.726 52.575 40.587 52.575 41.119 52.042 C 41.649 51.504 41.649 50.638 41.119 50.103 L 26.973 35.402 L 41.119 20.706 Z" fill="#3e3e3e" />
		<path d="M 70 35.002 C 70 54.3 54.298 70 34.998 70 C 15.699 70 0 54.3 0 35.002 C 0 15.702 15.699 0 34.998 0 C 54.298 0 70 15.702 70 35.002 Z  M 2.417 35.002 C 2.417 52.967 17.033 67.581 34.998 67.581 C 52.965 67.581 67.581 52.967 67.581 35.002 C 67.581 17.035 52.965 2.417 34.998 2.417 C 17.033 2.417 2.417 17.035 2.417 35.002 Z" fill="#3e3e3e" />
	</g>
</svg>