<?xml version="1.0" encoding="UTF-8"?>
<!-- Generator: Adobe Illustrator 19.0.0, SVG Export Plug-In . SVG Version: 6.00 Build 0)  -->
<svg version="1.1" id="Layer_1" xmlns="http://www.w3.org/2000/svg" xmlns:xlink="http://www.w3.org/1999/xlink" x="0px" y="0px" viewBox="-164 168.3 512 260" style="enable-background:new -164 168.3 512 260;" xml:space="preserve">
<style type="text/css">
	.st0{opacity:0.6;fill:#06D6A0;enable-background:new    ;}
</style>
<g id="XMLID_76_">
	<path id="XMLID_77_" d="M-39.2,383.4c1.4-6.2,5.5-9.8,11-9.8c5.6,0,9.5,3.7,10.7,9.8H-39.2z M-28.2,363.6   c-13.5,0-23.6,10.7-23.6,25.1c0,14.5,10.3,24.7,25,24.7c8,0,14.4-2.9,19.2-8.5l-7.1-6.3c-3.8,3.4-7.3,4.8-11.9,4.8   c-6.6,0-11.2-3.7-12.5-10l-0.2-0.7H-5c0.1-1.1,0.1-2.1,0.1-3C-5,377.6-11.1,363.6-28.2,363.6"/>
	<path id="XMLID_80_" d="M19.2,375.4v-3.2c-0.1-1.6-1.2-7.7-9-7.7H6.5v47.7h12.7v-17.5c0-11.5,5.5-17.9,15.5-17.9h0.1v-13.3h-0.3   C27.8,363.6,22.2,368.3,19.2,375.4"/>
	<path id="XMLID_81_" d="M-151.3,383.4c1.4-6.2,5.4-9.8,10.9-9.8c5.6,0,9.5,3.7,10.7,9.8H-151.3z M-140.4,363.6   c-13.5,0-23.6,10.7-23.6,25.1c0,14.5,10.3,24.7,25,24.7c8,0,14.4-2.9,19.2-8.5l-7.1-6.3c-3.8,3.4-7.3,4.8-11.9,4.8   c-6.6,0-11.2-3.7-12.5-10l-0.2-0.7h34.2c0.1-1.1,0.1-2.1,0.1-3C-117.2,377.6-123.3,363.6-140.4,363.6"/>
	<path id="XMLID_84_" d="M-78.7,363.6c-7,0-11,3.9-13.9,7.6l-1.1,1.4c0,0-0.3-8.1-8.4-8.1h-4.2v47.7h12.7v-26.7   c0-6.7,3.4-10.5,9.3-10.5c5.8,0,9,3.7,9,10.5v26.7h12.7v-31.1C-62.7,370.2-68.7,363.6-78.7,363.6"/>
	<path id="XMLID_85_" d="M69.1,397.9c-7.2,0-12.5-5-12.5-12.1c0-6.9,5.2-11.9,12.5-11.9s12.6,5,12.6,12.1   C81.7,392.9,76.4,397.9,69.1,397.9 M90.1,364.5c-6.2,0-8.6,7.3-8.6,7.3l-1-1.2c-3.2-3.5-7.5-7.1-15.3-7.1   c-10.5,0-21.1,7.6-21.1,22.4c0,14.6,10.6,22.2,21.1,22.2c6.4,0,10.9-2.2,15.5-7.7l1.1-1.3v4c0,9.3-4.9,13.9-14.6,13.9   c-5.8,0-10.9-1.3-16.2-4.2l-4.2,9.3c6.1,3.1,13.3,4.8,20.9,4.8c9.6,0,16.4-2.1,20.7-6.4c4-4,6-10.3,6-18.8v-37.3h-4.3V364.5z"/>
	<path id="XMLID_88_" d="M113.6,343.3c-4.1,0-7.4,3.3-7.4,7.4c0,4.1,3.3,7.4,7.4,7.4s7.4-3.3,7.4-7.4   C121.1,346.7,117.8,343.3,113.6,343.3"/>
	<rect id="XMLID_89_" x="107.3" y="364.5" width="12.7" height="47.7"/>
	<path id="XMLID_90_" d="M145,383.4c1.4-6.2,5.4-9.8,10.9-9.8c5.6,0,9.5,3.7,10.7,9.8H145z M155.9,363.6   c-13.5,0-23.6,10.7-23.6,25.1c0,14.5,10.3,24.7,25,24.7c8,0,14.4-2.9,19.2-8.5l-7.1-6.3c-3.8,3.4-7.3,4.8-11.9,4.8   c-6.6,0-11.2-3.7-12.5-10l-0.2-0.7H179c0.1-1.1,0.1-2.1,0.1-3C179.2,377.6,173.1,363.6,155.9,363.6"/>
	<rect id="XMLID_93_" x="191.3" y="346.8" width="12.7" height="65.4"/>
	<path id="XMLID_94_" d="M225.3,343.3c-4.1,0-7.4,3.3-7.4,7.4c0,4.1,3.3,7.4,7.4,7.4s7.4-3.3,7.4-7.4   C232.8,346.7,229.4,343.3,225.3,343.3"/>
	<path id="XMLID_95_" d="M271.6,363.6c-7,0-10.9,3.9-13.9,7.6l-1.1,1.4c0,0-0.3-8.1-8.5-8.1H244v47.7h12.7v-26.7   c0-6.7,3.4-10.5,9.3-10.5c5.8,0,9,3.7,9,10.5v26.7h12.7v-31.1C287.7,370.2,281.7,363.6,271.6,363.6"/>
	<rect id="XMLID_96_" x="217.1" y="364.5" width="12.7" height="47.7"/>
	<path id="XMLID_97_" d="M348,364.5h-4.1c-6.2,0-8.6,7.3-8.6,7.3l-1-1.2c-3.2-3.5-7.5-7.1-15.3-7.1c-10.5,0-21.1,7.6-21.1,22.4   c0,14.6,10.6,22.2,21.1,22.2c12.6,0,16.4-5.6,16.4-5.6v24.4H348v-25.2C348,401.8,348,364.5,348,364.5z M322.9,397.9   c-7.2,0-12.5-5-12.5-12.1c0-6.9,5.2-11.9,12.5-11.9s12.6,5,12.6,12.1C335.5,392.9,330.2,397.9,322.9,397.9z"/>
</g>
<path id="XMLID_104_" d="M282,198.3L282,198.3h-60.3l0,0c-32.5,0-58.9,26.3-58.9,58.9c0,32.5,26.4,58.9,58.9,58.9l0,0H282l0,0  c32.5,0,58.9-26.4,58.9-58.9C340.8,224.6,314.5,198.3,282,198.3z M282,287.3L282,287.3h-60.3l0,0c-16.6,0-30.1-13.5-30.1-30.1  s13.5-30.1,30.1-30.1l0,0H282l0,0c16.6,0,30.1,13.5,30.1,30.1S298.6,287.3,282,287.3z"/>
<path id="XMLID_107_" class="st0" d="M221.7,169.6L221.7,169.6h-60.3l0,0c-32.5,0-58.9,26.3-58.9,58.9c0,32.5,26.4,58.9,58.9,58.9  l0,0h60.3l0,0c32.5,0,58.9-26.4,58.9-58.9C280.5,195.9,254.2,169.6,221.7,169.6z M221.7,258.6L221.7,258.6h-60.3l0,0  c-16.6,0-30.1-13.5-30.1-30.1s13.5-30.1,30.1-30.1l0,0h60.3l0,0c16.6,0,30.1,13.5,30.1,30.1C251.8,245.1,238.3,258.6,221.7,258.6z"/>
<path id="XMLID_110_" d="M221.7,287.3c-16.2,0-29.4-12.7-30.1-28.7h-28.7c0.2,10.5,3.2,20.3,8.3,28.7H221.7L221.7,287.3z"/>
</svg>