<?xml version="1.0" standalone="no"?>
<svg xmlns="http://www.w3.org/2000/svg" style="isolation:isolate" width="194" height="112.984">
  <defs>
    <clipPath id="a">
      <path d="M0 0h194v112.984H0z"/>
    </clipPath>
  </defs>
  <g clip-path="url(#a)">
    <path d="M168.982 10.873h-22.846a22.313 22.313 0 0 0-19.452 33.516 22.313 22.313 0 0 0 19.452 11.113h22.846c12.264-.084 22.162-10.05 22.162-22.315 0-12.264-9.898-22.23-22.162-22.314zm0 33.718h-22.846c-6.298 0-11.403-5.106-11.403-11.404 0-6.297 5.105-11.403 11.403-11.403h22.846c6.297 0 11.403 5.106 11.403 11.403 0 6.298-5.106 11.404-11.403 11.404z" fill="#040506"/>
    <path d="M146.136.001h-22.845c-12.265.083-22.163 10.049-22.163 22.314s9.898 22.231 22.163 22.314h22.845a22.312 22.312 0 0 0 19.452-33.515A22.312 22.312 0 0 0 146.136.001zm0 33.717h-22.845c-6.256-.059-11.295-5.147-11.295-11.403s5.039-11.344 11.295-11.403h22.845a11.404 11.404 0 1 1 0 22.806z" fill="#4BAA82" opacity=".6"/>
    <path d="M146.136 44.591c-6.1.015-11.128-4.779-11.404-10.873H123.86a21.665 21.665 0 0 0 3.144 10.873h19.132zM169.927 55.019s-1.597 3.421 2.281 10.493c0 0-11.545-.912-11.314-10.493" fill="#040506"/>
    <g fill="#040506">
      <path d="M176.095 100.141a1.247 1.247 0 0 0-.883 2.131 1.25 1.25 0 0 0 2.131-.883c0-.689-.559-1.248-1.248-1.248M132.825 105.961c.101-.8.775-1.403 1.58-1.415a1.548 1.548 0 0 1 1.544 1.415h-3.124zm1.58-2.849a3.589 3.589 0 1 0 2.959 5.946l-1.026-.908a2.367 2.367 0 0 1-1.71.696 1.728 1.728 0 0 1-1.807-1.446l-.022-.104h4.938c.009-.156.016-.312.016-.439 0-1.725-.876-3.744-3.343-3.744M141.235 104.82v-.466a1.177 1.177 0 0 0-1.294-1.11h-.534v6.874h1.828v-2.514c0-1.664.791-2.572 2.228-2.572h.019v-1.92h-.048a2.487 2.487 0 0 0-2.199 1.711M128.704 103.244l-1.649 4.905-1.64-4.905h-1.928l2.705 6.93h1.698l2.704-6.93h-1.89zM98.031 104.719a1.975 1.975 0 0 1 1.941 2.057 1.9 1.9 0 0 1-1.913 2.009 1.975 1.975 0 0 1-1.941-2.062 1.895 1.895 0 0 1 1.913-2.004m0 5.617a3.63 3.63 0 0 0 3.738-3.611 3.556 3.556 0 0 0-3.71-3.555 3.63 3.63 0 0 0-3.744 3.608 3.556 3.556 0 0 0 3.713 3.558M80.128 108.939a4.036 4.036 0 0 1-2.195-.805l-.766 1.173a4.835 4.835 0 0 0 2.912 1c1.634 0 2.611-.818 2.611-2.215 0-1.217-1.073-1.675-2.074-2.009l-.221-.076c-.71-.241-1.269-.43-1.269-.875 0-.262.208-.571.82-.571a4.136 4.136 0 0 1 1.872.624l.684-1.236a4.823 4.823 0 0 0-2.517-.756 2.232 2.232 0 0 0-2.49 2.176c0 1.263.979 1.72 2.04 2.035l.268.08c.702.208 1.255.368 1.255.841 0 .184-.09.612-.93.612M147.523 106.028l-.219-.077c-.709-.24-1.271-.431-1.271-.87 0-.266.215-.573.82-.573a4.14 4.14 0 0 1 1.872.624l.679-1.236a4.805 4.805 0 0 0-2.515-.757 2.236 2.236 0 0 0-2.496 2.174c0 1.26.983 1.723 2.044 2.037l.267.08c.703.208 1.254.37 1.254.843 0 .185-.089.613-.927.613a4.034 4.034 0 0 1-2.199-.808l-.764 1.175a4.84 4.84 0 0 0 2.913.999c1.635 0 2.608-.819 2.608-2.216 0-1.217-1.067-1.676-2.071-2.009M86.458 110.295a2.907 2.907 0 0 0 1.49-.371v-1.416c-.282.132-.59.199-.901.197-.489 0-.728-.253-.728-.77v-3.096h1.654v-1.541h-1.654v-1.797H84.49v1.797h-.843v1.541h.843v3.426c0 1.404.606 2.03 1.966 2.03M167.543 100.695h1.831v9.424h-1.831zM104.848 106.723a1.895 1.895 0 0 1 1.913-2.004 1.975 1.975 0 0 1 1.941 2.057 1.9 1.9 0 0 1-1.913 2.009 1.975 1.975 0 0 1-1.941-2.062m5.652 0a3.553 3.553 0 0 0-3.711-3.555 3.63 3.63 0 0 0-3.745 3.608 3.562 3.562 0 0 0 3.715 3.558 3.629 3.629 0 0 0 3.744-3.611M182.997 103.112A2.414 2.414 0 0 0 181 104.21l-.154.2a1.193 1.193 0 0 0-1.218-1.166h-.608v6.875h1.826v-3.848c0-.965.486-1.518 1.333-1.518.846 0 1.297.538 1.297 1.518v3.848h1.828v-4.472a2.23 2.23 0 0 0-2.307-2.534M190.373 108.057a1.732 1.732 0 1 1 1.809-1.714 1.703 1.703 0 0 1-1.809 1.714m3.022-4.813c-.891 0-1.24 1.059-1.24 1.059l-.147-.165a2.77 2.77 0 0 0-2.21-1.026 3.224 3.224 0 0 0 0 6.43 2.655 2.655 0 0 0 2.234-1.113l.152-.181v.577c0 1.334-.704 2.008-2.098 2.008a4.67 4.67 0 0 1-2.34-.61l-.608 1.342a6.612 6.612 0 0 0 3.003.688 4.063 4.063 0 0 0 2.976-.923 3.716 3.716 0 0 0 .87-2.712v-5.372l-.592-.002zM175.144 103.245h1.824v6.874h-1.824zM160.872 105.961a1.61 1.61 0 0 1 1.576-1.415 1.548 1.548 0 0 1 1.544 1.415h-3.12zm1.576-2.849a3.59 3.59 0 1 0 2.957 5.941l-1.023-.908a2.375 2.375 0 0 1-1.71.696 1.727 1.727 0 0 1-1.806-1.446l-.022-.104h4.931c.009-.156.021-.312.021-.439 0-1.725-.877-3.744-3.348-3.744M171.428 100.695h1.828v9.424h-1.828zM155.179 103.112a2.416 2.416 0 0 0-1.998 1.098l-.156.2a1.191 1.191 0 0 0-1.216-1.166h-.61v6.875h1.828v-3.848c0-.965.488-1.518 1.337-1.518.848 0 1.296.538 1.296 1.518v3.848h1.827v-4.472a2.233 2.233 0 0 0-2.306-2.534M122.704 110.174v-4.5c0-1.616-.815-2.506-2.295-2.506a2.805 2.805 0 0 0-2.25 1.088l-.079.097-.062-.114a2.025 2.025 0 0 0-1.905-1.071 2.46 2.46 0 0 0-2.014 1.097l-.151.2a1.19 1.19 0 0 0-1.298-1.167h-.532v6.876h1.83v-3.848c0-.964.471-1.521 1.296-1.521.825 0 1.256.541 1.256 1.521v3.848h1.828v-3.848c0-.964.47-1.521 1.293-1.521s1.258.541 1.258 1.521v3.848h1.825zM93.643 103.167a2.48 2.48 0 0 0-2.197 1.708v-.41a1.191 1.191 0 0 0-1.299-1.167h-.531v6.876h1.835v-2.519c0-1.656.79-2.567 2.228-2.567h.018v-1.921h-.054zM.011 103.228h1.573v.501c-.001.158-.01.317-.028.474h.028a2.469 2.469 0 0 1 2.22-1.138c1.873 0 3.063 1.476 3.063 3.618 0 2.193-1.342 3.616-3.157 3.616a2.387 2.387 0 0 1-1.977-.947h-.027s.027.243.027.595v2.898H.011v-9.617zm3.388 5.617c.947 0 1.734-.773 1.734-2.141 0-1.313-.705-2.168-1.721-2.168-.894 0-1.734.651-1.734 2.184 0 1.075.583 2.131 1.721 2.131v-.006zM11.563 103.066a3.622 3.622 0 1 1-3.793 3.618 3.642 3.642 0 0 1 3.793-3.618zm.013 5.771a2.157 2.157 0 0 0 1.657-3.644 2.157 2.157 0 0 0-3.715 1.491 2.047 2.047 0 0 0 .567 1.518c.389.408.928.637 1.491.635zM15.99 103.228h1.82l1.205 4.537c.06.24.106.483.135.729h.028s.068-.366.163-.729l1.273-4.524h1.53l1.274 4.524c.095.367.149.729.149.729h.027s.054-.366.15-.729l1.205-4.537h1.788l-2.1 6.909h-1.916l-1.164-3.942c-.104-.365-.176-.745-.176-.745h-.028c-.038.252-.092.5-.162.745l-1.165 3.942h-1.923l-2.113-6.909zM30.885 103.066a2.99 2.99 0 0 1 3.062 3.279c0 .202-.04.664-.04.664h-4.769a1.966 1.966 0 0 0 2.073 1.828 3.42 3.42 0 0 0 1.991-.758l.664 1.232a4.31 4.31 0 0 1-2.777.989 3.536 3.536 0 0 1-3.712-3.616 3.417 3.417 0 0 1 3.508-3.618zm1.329 2.765a1.333 1.333 0 0 0-1.369-1.437 1.608 1.608 0 0 0-1.652 1.437h3.021zM35.366 103.228h1.653v1.191a4.97 4.97 0 0 1-.027.488h.027a2.377 2.377 0 0 1 2.195-1.774c.104 0 .209.01.312.028v1.692a3.243 3.243 0 0 0-.406-.026 1.958 1.958 0 0 0-1.884 1.448 3.754 3.754 0 0 0-.148 1.125v2.737h-1.722v-6.909zM43.709 103.066a2.991 2.991 0 0 1 3.062 3.279c0 .202-.041.664-.041.664h-4.769a1.964 1.964 0 0 0 2.073 1.828 3.415 3.415 0 0 0 1.99-.758l.665 1.232a4.312 4.312 0 0 1-2.778.989 3.536 3.536 0 0 1-3.711-3.616 3.414 3.414 0 0 1 3.509-3.618zm1.328 2.765a1.332 1.332 0 0 0-1.369-1.437 1.608 1.608 0 0 0-1.652 1.437h3.021zM50.844 103.066a2.165 2.165 0 0 1 1.991.881h.027s-.013-.176-.013-.393v-3.035h1.72v9.619h-1.625v-.565c0-.15.009-.299.027-.448h-.027a2.395 2.395 0 0 1-2.167 1.179c-1.872 0-3.062-1.477-3.062-3.616 0-2.2 1.299-3.622 3.129-3.622zm.325 5.785c.894 0 1.734-.651 1.734-2.184 0-1.071-.568-2.128-1.72-2.128-.949 0-1.734.773-1.734 2.142 0 1.316.709 2.17 1.72 2.17zM59.752 100.519h1.721v2.966c0 .34-.027.584-.027.584h.027a2.43 2.43 0 0 1 2.072-1.003c1.873 0 3.063 1.476 3.063 3.618 0 2.193-1.342 3.616-3.171 3.616a2.44 2.44 0 0 1-2.059-1.029h-.027c.018.157.027.315.027.474v.393h-1.626v-9.619zm3.387 8.332c.948 0 1.734-.772 1.734-2.141 0-1.313-.705-2.168-1.72-2.168-.894 0-1.734.651-1.734 2.184 0 1.069.568 2.125 1.72 2.125zM67.66 111.249c.226.164.493.263.772.284a1.304 1.304 0 0 0 1.192-.894l.257-.609-2.913-6.801h1.938l1.449 3.982c.104.307.19.619.258.936h.027c.062-.306.138-.608.23-.907l1.352-4.009h1.883l-3.088 7.95a2.586 2.586 0 0 1-2.497 1.803 2.659 2.659 0 0 1-1.435-.447l.575-1.288z"/>
    </g>
    <g fill="#040506">
      <path d="M47.292 81c.531-2.35 2.081-3.714 4.168-3.714 2.122 0 3.599 1.403 4.057 3.714h-8.225zm4.168-7.502c-5.114 0-8.945 4.057-8.945 9.509a9.02 9.02 0 0 0 9.471 9.361 9.123 9.123 0 0 0 7.274-3.224l-2.69-2.392a6.265 6.265 0 0 1-4.508 1.818 4.515 4.515 0 0 1-4.735-3.788l-.076-.266h12.996c.039-.416.039-.795.039-1.136-.039-4.584-2.35-9.888-8.828-9.888M69.418 77.969v-1.213a3.1 3.1 0 0 0-3.41-2.912h-1.402v18.071h4.812v-6.634c0-4.357 2.08-6.782 5.872-6.782h.038V73.46h-.113c-2.539.038-4.66 1.819-5.797 4.509M4.823 81c.53-2.35 2.046-3.714 4.129-3.714 2.122 0 3.6 1.403 4.057 3.714H4.823zm4.129-7.502c-5.114 0-8.945 4.057-8.945 9.509a9.02 9.02 0 0 0 9.471 9.361 9.128 9.128 0 0 0 7.275-3.224l-2.688-2.386a6.264 6.264 0 0 1-4.509 1.818 4.516 4.516 0 0 1-4.735-3.788l-.076-.265h12.961c.038-.416.038-.796.038-1.137 0-4.584-2.311-9.888-8.79-9.888M32.328 73.498a6.413 6.413 0 0 0-5.261 2.879l-.416.531a3.14 3.14 0 0 0-3.182-3.069h-1.603v18.072h4.812V81.795c0-2.538 1.288-3.978 3.523-3.978 2.198 0 3.409 1.402 3.409 3.978v10.116h4.812V80.128c-.037-4.129-2.311-6.63-6.099-6.63M88.322 86.493a4.552 4.552 0 1 1 4.775-4.508 4.499 4.499 0 0 1-4.775 4.508m7.956-12.654c-2.348 0-3.257 2.765-3.257 2.765l-.379-.454a7.306 7.306 0 0 0-5.797-2.69c-3.978 0-7.994 2.88-7.994 8.486 0 5.532 4.016 8.411 7.994 8.411a7.003 7.003 0 0 0 5.872-2.913l.416-.493v1.508c0 3.524-1.857 5.266-5.531 5.266a12.25 12.25 0 0 1-6.137-1.592l-1.592 3.524a17.52 17.52 0 0 0 7.918 1.818c3.64 0 6.214-.795 7.842-2.424 1.516-1.516 2.273-3.903 2.273-7.123V73.801h-1.629l.001.038zM105.181 65.808a2.802 2.802 0 0 0 .007 5.606 2.803 2.803 0 0 0 2.801-2.803 2.795 2.795 0 0 0-2.808-2.803M102.795 73.839h4.812V91.91h-4.812zM117.078 81c.53-2.35 2.046-3.714 4.129-3.714 2.122 0 3.599 1.403 4.057 3.714h-8.186zm4.129-7.502c-5.114 0-8.945 4.057-8.945 9.509a9.02 9.02 0 0 0 9.472 9.361 9.122 9.122 0 0 0 7.273-3.224l-2.69-2.392a6.264 6.264 0 0 1-4.508 1.818 4.515 4.515 0 0 1-4.735-3.788l-.076-.266h12.957c.037-.416.037-.795.037-1.136.039-4.584-2.273-9.888-8.789-9.888M134.619 67.134h4.812v24.777h-4.812zM147.112 65.808a2.802 2.802 0 0 0 .007 5.606 2.803 2.803 0 0 0 2.801-2.803 2.796 2.796 0 0 0-2.808-2.803M165.04 73.498a6.466 6.466 0 0 0-5.265 2.879l-.416.531a3.152 3.152 0 0 0-3.224-3.069h-1.548v18.072h4.811V81.795c0-2.538 1.288-3.978 3.524-3.978 2.196 0 3.409 1.402 3.409 3.978v10.116h4.812V80.128c0-4.129-2.274-6.63-6.1-6.63M144.393 73.839h4.812V91.91h-4.812zM193.985 74.88h-1.553c-2.348 0-3.258 2.764-3.258 2.764l-.379-.454a7.306 7.306 0 0 0-5.797-2.69c-3.977 0-7.993 2.88-7.993 8.486 0 5.532 4.016 8.411 7.993 8.411 4.775 0 6.214-2.121 6.214-2.121v9.244h4.773V74.88zm-9.509 12.653a4.552 4.552 0 1 1 4.774-4.508 4.503 4.503 0 0 1-4.774 4.508z"/>
    </g>
  </g>
</svg>