<svg width="660" height="330" viewBox="0 0 660 330" fill="none" xmlns="http://www.w3.org/2000/svg">
<rect width="660" height="330" fill="#4BAA82"/>
<path d="M230.613 164.5C230.613 143.624 247.582 126.654 268.458 126.654H317.292V103.458H268.458C234.763 103.458 207.417 130.805 207.417 164.5C207.417 198.195 234.763 225.542 268.458 225.542H317.292V202.346H268.458C247.582 202.346 230.613 185.376 230.613 164.5ZM280.667 176.708H378.333V152.292H280.667V176.708ZM390.542 103.458H341.708V126.654H390.542C411.418 126.654 428.388 143.624 428.388 164.5C428.388 185.376 411.418 202.346 390.542 202.346H341.708V225.542H390.542C424.237 225.542 451.583 198.195 451.583 164.5C451.583 130.805 424.237 103.458 390.542 103.458Z" fill="white"/>
</svg>