<?xml version="1.0" encoding="UTF-8" standalone="no"?>
<svg width="500px" height="340px" viewBox="0 0 500 340" version="1.1" xmlns="http://www.w3.org/2000/svg" xmlns:xlink="http://www.w3.org/1999/xlink" xmlns:sketch="http://www.bohemiancoding.com/sketch/ns">
    <!-- Generator: Sketch 3.5.2 (25235) - http://www.bohemiancoding.com/sketch -->
    <title>logo</title>
    <desc>Created with Sketch.</desc>
    <defs/>
    <g id="Page-1" stroke="none" stroke-width="1" fill="none" fill-rule="evenodd" sketch:type="MSPage">
        <g id="logo" sketch:type="MSLayerGroup" transform="translate(5.000000, 4.000000)">
            <path d="M418.885768,34.7213494 C398.790262,34.7213494 382.487516,51.0266174 382.487516,71.1252311 C382.487516,91.2238447 398.790262,107.529113 418.885768,107.529113 C439.01186,107.529113 455.28402,91.2238447 455.28402,71.1252311 C455.314607,50.9960259 439.01186,34.7213494 418.885768,34.7213494 M490,71.0946396 C490,110.34353 458.159176,142.189279 418.885768,142.189279 C379.61236,142.189279 347.802122,110.34353 347.802122,71.0946396 C347.832709,31.8151571 379.642946,0 418.885768,0 C458.159176,0 490,31.8151571 490,71.0946396" id="Shape" fill="#000000" sketch:type="MSShapeGroup"/>
            <path d="M388.910737,34.7213494 C368.815231,34.7213494 352.512484,51.0266174 352.512484,71.1252311 C352.512484,91.2238447 368.815231,107.529113 388.910737,107.529113 C409.006242,107.529113 425.308989,91.2238447 425.308989,71.1252311 C425.339576,50.9960259 409.036829,34.7213494 388.910737,34.7213494 M460.024969,71.0946396 C460.024969,110.34353 428.214732,142.189279 388.910737,142.189279 C349.667915,142.189279 317.827091,110.34353 317.827091,71.0946396 C317.857678,31.8151571 349.698502,0 388.910737,0 C428.214732,0 460.024969,31.8151571 460.024969,71.0946396" id="Shape" opacity="0.6" fill="#06D6A0" sketch:type="MSShapeGroup"/>
            <path d="M329.021848,34.7213494 C308.926342,34.7213494 292.623596,51.0266174 292.623596,71.1252311 C292.623596,91.2238447 308.926342,107.529113 329.021848,107.529113 C349.117353,107.529113 365.4201,91.2238447 365.4201,71.1252311 C365.4201,50.9960259 349.117353,34.7213494 329.021848,34.7213494 M400.105493,71.0946396 C400.105493,110.34353 368.264669,142.189279 329.021848,142.189279 C289.748439,142.189279 257.938202,110.34353 257.938202,71.0946396 C257.907615,31.8151571 289.748439,0 329.021848,0 C368.264669,0 400.105493,31.8151571 400.105493,71.0946396" id="Shape" opacity="0.4" fill="#06D6A0" sketch:type="MSShapeGroup"/>
            <path d="M231.388889,34.7213494 C211.293383,34.7213494 194.990637,51.0266174 194.990637,71.1252311 C194.990637,91.2238447 211.293383,107.529113 231.388889,107.529113 C251.484395,107.529113 267.787141,91.2238447 267.787141,71.1252311 C267.787141,50.9960259 251.484395,34.7213494 231.388889,34.7213494 M302.472534,71.0946396 C302.472534,110.34353 270.63171,142.189279 231.388889,142.189279 C192.115481,142.219871 160.274657,110.374122 160.274657,71.0946396 C160.274657,31.8151571 192.115481,0 231.388889,0 C270.63171,0 302.472534,31.8151571 302.472534,71.0946396" id="Shape" opacity="0.2" fill="#06D6A0" sketch:type="MSShapeGroup"/>
            <path d="M460.024969,71.0946396 C460.024969,36.9545287 435.98377,8.47384473 403.928839,1.59075786 C392.734082,4.00748614 382.487516,9.02449168 373.953808,16.0299445 C380.377029,21.2610906 385.85206,27.5935305 390.10362,34.7519409 C395.02809,34.9048983 399.677278,36.0367837 403.959426,37.9640481 C408.516854,35.8838262 413.594257,34.7213494 418.916355,34.7213494 C439.042447,34.7213494 455.314607,51.0266174 455.314607,71.1252311 C455.314607,91.2238447 439.01186,107.529113 418.916355,107.529113 C413.594257,107.529113 408.516854,106.336044 403.959426,104.255823 C399.707865,106.183087 395.058677,107.314972 390.10362,107.437338 C385.85206,114.595749 380.377029,120.928189 373.953808,126.189926 C382.518102,133.195379 392.734082,138.212384 403.928839,140.598521 C435.98377,133.715434 460.024969,105.23475 460.024969,71.0946396" id="Shape" opacity="0.6" fill="#06D6A0" sketch:type="MSShapeGroup"/>
            <path d="M63.9875156,288.600185 C65.3945069,282.604251 69.309613,279.055638 74.6317104,279.055638 C80.0761548,279.055638 83.8995006,282.604251 85.031211,288.600185 L63.9875156,288.600185 L63.9875156,288.600185 Z M74.6317104,269.388725 C61.571161,269.388725 51.7222222,279.759242 51.7222222,293.739556 C51.7222222,307.842237 61.6935081,317.692699 75.9469413,317.692699 C83.6853933,317.692699 89.9556804,314.908872 94.5742821,309.463586 L87.6616729,303.345287 C83.9912609,306.649168 80.5961298,308.025786 76.1304619,308.025786 C69.7378277,308.025786 65.3027466,304.477172 63.9569288,298.267098 L63.803995,297.563494 L97.0518102,297.563494 C97.1129838,296.523383 97.1435705,295.483272 97.1435705,294.596118 C97.1741573,283.001941 91.2709114,269.388725 74.6317104,269.388725 L74.6317104,269.388725 Z" id="Shape" fill="#000000" sketch:type="MSShapeGroup"/>
            <path d="M120.664794,280.891128 L120.664794,277.770795 C120.542447,276.210628 119.533084,270.30647 111.947566,270.30647 L108.368914,270.30647 L108.368914,316.621996 L120.664794,316.621996 L120.664794,299.674307 C120.664794,288.477819 126.017478,282.328928 135.682896,282.328928 L135.805243,282.328928 L135.805243,269.388725 L135.468789,269.358133 C129.045568,269.358133 123.570537,273.977449 120.664794,280.891128" id="Shape" fill="#000000" sketch:type="MSShapeGroup"/>
            <path d="M36.2147316,270.275878 L25.1117353,303.345287 L14.0699126,270.275878 L1.07053683,270.275878 L19.3002497,316.989094 L30.7397004,316.989094 L48.9694132,270.275878 L36.2147316,270.275878 Z" id="Shape" fill="#000000" sketch:type="MSShapeGroup"/>
            <path d="M140.607366,198.81414 C147.917603,198.81414 153.698502,204.810074 153.698502,212.672089 C153.698502,220.503512 148.254057,226.224122 140.790886,226.224122 C133.450062,226.224122 127.69975,220.197597 127.69975,212.335582 C127.69975,204.504159 133.144195,198.81414 140.607366,198.81414 M140.607366,236.655823 C154.738452,236.655823 165.810861,226.040573 165.810861,212.335582 C165.810861,198.691774 155.074906,188.38244 140.790886,188.38244 C126.629213,188.38244 115.587391,198.997689 115.587391,212.70268 C115.587391,226.346488 126.323346,236.655823 140.607366,236.655823" id="Shape" fill="#000000" sketch:type="MSShapeGroup"/>
            <path d="M19.9425718,227.264233 C15.4463171,227.264233 10.0630462,225.275786 5.13857678,221.818946 L0,229.742144 C5.68913858,234.086137 12.6323346,236.472274 19.6061174,236.472274 C30.6173533,236.472274 37.1935081,230.965804 37.1935081,221.543623 C37.1935081,213.345102 29.9750312,210.25536 23.2153558,207.99159 L21.7166042,207.471534 C16.9450687,205.850185 13.1523096,204.565342 13.1523096,201.567375 C13.1523096,199.793068 14.5898876,197.712847 18.6885144,197.712847 C22.0224719,197.712847 26.5799001,199.242421 31.3208489,201.934473 L35.9394507,193.613586 C30.9843945,190.401479 24.6835206,188.504806 18.9637953,188.504806 C10.613608,188.504806 2.17166042,193.001756 2.17166042,203.158133 C2.17166042,211.662569 8.778402,214.752311 15.9357054,216.863124 L17.7403246,217.413771 C22.4506866,218.790388 26.1822722,219.891682 26.1822722,223.103789 C26.2128589,224.388632 25.6011236,227.264233 19.9425718,227.264233" id="Shape" fill="#000000" sketch:type="MSShapeGroup"/>
            <path d="M163.058052,289.059057 L161.589888,288.539002 C156.818352,286.917652 153.025593,285.63281 153.025593,282.665434 C153.025593,280.860536 154.463171,278.810906 158.561798,278.810906 C161.895755,278.810906 166.48377,280.309889 171.224719,283.032532 L175.812734,274.711645 C170.857678,271.499538 164.556804,269.602865 158.867665,269.602865 C150.517478,269.602865 142.044944,274.069224 142.044944,284.256192 C142.044944,292.760628 148.682272,295.880961 155.808989,297.991774 L157.613608,298.51183 C162.354557,299.888447 166.055556,301.020333 166.055556,304.201848 C166.055556,305.4561 165.44382,308.331701 159.785268,308.331701 C155.289014,308.331701 149.905743,306.373845 144.981273,302.886414 L139.842697,310.809612 C145.531835,315.153604 152.475031,317.539741 159.448814,317.539741 C170.46005,317.539741 177.036205,312.00268 177.036205,302.611091 C177.005618,294.381978 169.817728,291.292237 163.058052,289.059057" id="Shape" fill="#000000" sketch:type="MSShapeGroup"/>
            <path d="M62.6111111,236.411091 C66.4650437,236.411091 69.6766542,235.58512 72.6435705,233.902588 L72.6435705,224.358041 C70.747191,225.245194 68.7284644,225.673475 66.5873908,225.673475 C63.28402,225.673475 61.6935081,223.960351 61.6935081,220.472921 L61.6935081,199.609519 L72.8270911,199.609519 L72.8270911,189.239002 L61.6935081,189.239002 L61.6935081,177.124769 L49.3670412,177.124769 L49.3670412,189.239002 L43.6779026,189.239002 L43.6779026,199.609519 L49.3670412,199.609519 L49.3670412,222.7061 C49.3364544,232.189464 53.4350811,236.411091 62.6111111,236.411091" id="Shape" fill="#000000" sketch:type="MSShapeGroup"/>
            <rect id="Rectangle-path" fill="#000000" sketch:type="MSShapeGroup" x="297.97628" y="253.114048" width="12.3264669" height="63.5079482"/>
            <path d="M186.548689,212.335582 C186.548689,204.504159 191.993134,198.81414 199.456305,198.81414 C206.797129,198.81414 212.547441,204.810074 212.547441,212.672089 C212.547441,220.503512 207.133583,226.224122 199.670412,226.224122 C192.299001,226.224122 186.548689,220.197597 186.548689,212.335582 M224.629213,212.335582 C224.629213,198.691774 213.893258,188.38244 199.609238,188.38244 C185.478152,188.38244 174.375156,198.997689 174.375156,212.70268 C174.375156,226.377079 185.141698,236.686414 199.395131,236.686414 C213.587391,236.655823 224.629213,226.071165 224.629213,212.335582" id="Shape" fill="#000000" sketch:type="MSShapeGroup"/>
            <path d="M355.326467,249.718392 C351.350187,249.718392 348.10799,252.930499 348.10799,256.937985 C348.10799,260.91488 351.350187,264.157579 355.326467,264.157579 C359.302747,264.157579 362.544944,260.91488 362.544944,256.937985 C362.544944,252.961091 359.302747,249.718392 355.326467,249.718392" id="Shape" fill="#000000" sketch:type="MSShapeGroup"/>
            <path d="M402.12422,269.388725 C395.333958,269.388725 391.510612,273.151479 388.666042,276.791867 L387.626092,278.137893 C387.626092,278.137893 387.350811,270.30647 379.428839,270.275878 L375.299625,270.275878 L375.299625,316.621996 L387.626092,316.621996 L387.626092,290.710998 C387.626092,284.195009 390.898876,280.493438 396.618602,280.493438 C402.277154,280.493438 405.366417,284.103235 405.366417,290.710998 L405.366417,316.621996 L417.692884,316.621996 L417.692884,286.45878 C417.662297,275.782348 411.820225,269.388725 402.12422,269.388725" id="Shape" fill="#000000" sketch:type="MSShapeGroup"/>
            <path d="M452.806492,302.733457 C445.802122,302.733457 440.724719,297.869409 440.724719,290.986322 C440.724719,284.286784 445.802122,279.392144 452.806492,279.392144 C459.872035,279.392144 465.010612,284.256192 465.010612,291.169871 C464.980025,297.869409 459.872035,302.733457 452.806492,302.733457 L452.806492,302.733457 Z M473.177278,270.275878 C467.182272,270.275878 464.827091,277.403697 464.827091,277.403697 L463.848315,276.271811 C460.728464,272.845564 456.538077,269.358133 448.952559,269.358133 C438.736579,269.358133 428.428839,276.761275 428.428839,291.139279 C428.428839,305.303142 438.736579,312.706285 448.952559,312.706285 C455.19226,312.706285 459.535581,310.534288 464.001248,305.180776 L465.010612,303.957116 L465.010612,307.842237 C465.010612,316.836137 460.269663,321.39427 450.879526,321.39427 C445.220974,321.39427 440.327091,320.109427 435.096754,317.295009 L430.998127,326.350092 C436.93196,329.378651 443.905743,331 451.246567,331 C460.544944,331 467.121099,328.95037 471.311486,324.789926 C475.196005,320.935397 477.184145,314.755915 477.184145,306.496211 L477.184145,270.275878 L473.177278,270.275878 L473.177278,270.275878 Z" id="Shape" fill="#000000" sketch:type="MSShapeGroup"/>
            <rect id="Rectangle-path" fill="#000000" sketch:type="MSShapeGroup" x="349.178527" y="270.275878" width="12.2958801" height="46.3461183"/>
            <path d="M253.013733,288.600185 C254.390137,282.604251 258.305243,279.055638 263.627341,279.055638 C269.071785,279.055638 272.895131,282.604251 274.026841,288.600185 L253.013733,288.600185 L253.013733,288.600185 Z M263.627341,269.388725 C250.566792,269.388725 240.717853,279.759242 240.717853,293.739556 C240.717853,307.842237 250.689139,317.692699 264.942572,317.692699 C272.681024,317.692699 278.951311,314.908872 283.539326,309.463586 L276.657303,303.345287 C272.956305,306.649168 269.59176,308.025786 265.126092,308.025786 C258.733458,308.025786 254.298377,304.477172 252.952559,298.267098 L252.799625,297.563494 L286.016854,297.563494 C286.078027,296.523383 286.169788,295.483272 286.169788,294.596118 C286.200375,283.001941 280.266542,269.388725 263.627341,269.388725 L263.627341,269.388725 Z" id="Shape" fill="#000000" sketch:type="MSShapeGroup"/>
            <rect id="Rectangle-path" fill="#000000" sketch:type="MSShapeGroup" x="324.158552" y="253.114048" width="12.3264669" height="63.5079482"/>
            <path d="M214.627341,269.388725 C207.867665,269.388725 203.983146,273.151479 201.169164,276.791867 L200.129213,278.137893 C200.129213,278.137893 199.884519,270.30647 191.93196,270.275878 L187.833333,270.275878 L187.833333,316.621996 L200.129213,316.621996 L200.129213,290.710998 C200.129213,284.195009 203.401998,280.493438 209.121723,280.493438 C214.749688,280.493438 217.869538,284.103235 217.869538,290.710998 L217.869538,316.621996 L230.196005,316.621996 L230.196005,286.45878 C230.196005,275.782348 224.353933,269.388725 214.627341,269.388725" id="Shape" fill="#000000" sketch:type="MSShapeGroup"/>
            <path d="M306.877029,235.58512 L306.877029,205.268946 C306.877029,194.378373 301.371411,188.38244 291.400125,188.38244 C285.343945,188.38244 280.511236,190.707394 276.229089,195.724399 L275.709114,196.366821 L275.280899,195.602033 C272.895131,190.952126 268.276529,188.38244 262.434457,188.38244 C255.521848,188.38244 251.545568,192.328743 248.853933,195.785582 L247.844569,197.131608 C247.844569,197.131608 247.844569,189.269593 239.096754,189.269593 L235.518102,189.269593 L235.518102,235.615712 L247.844569,235.615712 L247.844569,209.704713 C247.844569,203.219316 251.025593,199.456562 256.561798,199.456562 C262.006242,199.456562 265.034332,203.09695 265.034332,209.704713 L265.034332,235.615712 L277.360799,235.615712 L277.360799,209.704713 C277.360799,203.219316 280.541823,199.456562 286.078027,199.456562 C291.522472,199.456562 294.550562,203.09695 294.550562,209.704713 L294.550562,235.615712 L306.877029,235.615712 L306.877029,235.58512 Z" id="Shape" fill="#000000" sketch:type="MSShapeGroup"/>
            <path d="M111.029963,188.351848 C104.576155,188.351848 99.1011236,192.940573 96.2259675,199.854251 L96.2259675,197.101017 C96.2259675,197.101017 96.2259675,189.239002 87.4781523,189.239002 L83.8995006,189.239002 L83.8995006,235.58512 L96.2259675,235.58512 L96.2259675,218.606839 C96.2259675,207.440943 101.548065,201.292052 111.24407,201.292052 L111.366417,201.292052 L111.366417,188.351848 L111.029963,188.351848 L111.029963,188.351848 Z" id="Shape" fill="#000000" sketch:type="MSShapeGroup"/>
        </g>
    </g>
</svg>